<?xml version="1.0" standalone="no"?>
<!DOCTYPE svg PUBLIC "-//W3C//DTD SVG 20010904//EN"
 "http://www.w3.org/TR/2001/REC-SVG-20010904/DTD/svg10.dtd">
<svg version="1.0" xmlns="http://www.w3.org/2000/svg"
 width="200.000000pt" height="200.000000pt" viewBox="0 0 200.000000 200.000000"
 preserveAspectRatio="xMidYMid meet">
<metadata>
Created by potrace 1.16, written by Peter Selinger 2001-2019
</metadata>
<g transform="translate(0.000000,200.000000) scale(0.100000,-0.100000)"
fill="#000000" stroke="none">
<path d="M830 1441 l-155 -96 0 -190 0 -189 156 -97 156 -96 162 99 161 100 0
124 0 125 -30 -17 c-29 -17 -29 -20 -32 -108 l-3 -90 -110 -68 c-60 -37 -113
-68 -117 -68 -4 0 -8 19 -10 42 -3 42 -5 44 -91 97 l-88 54 2 51 c3 46 1 51
-19 54 -22 3 -23 1 -20 -64 l3 -68 88 -55 c76 -47 87 -58 87 -83 0 -15 -4 -28
-9 -28 -6 0 -60 30 -121 67 l-110 68 2 84 3 84 125 78 125 78 30 -18 c127 -75
125 -74 125 -113 0 -39 5 -44 28 -29 9 5 12 23 10 52 -3 43 -4 44 -85 92 -81
48 -83 50 -83 88 0 22 3 39 8 39 4 0 57 -31 117 -68 109 -68 110 -69 113 -109
l3 -41 29 16 c26 15 30 23 30 59 l0 41 -142 88 c-79 48 -152 93 -163 99 -18
11 -39 0 -175 -84z m140 -35 c0 -40 4 -36 -132 -120 l-108 -66 0 42 0 43 108
67 c59 37 113 67 120 67 7 1 12 -12 12 -33z"/>
<path d="M940 1216 c-31 -21 -35 -28 -36 -70 -1 -45 1 -49 39 -73 l41 -26 43
24 c42 23 43 25 43 74 0 48 -2 51 -40 73 -47 27 -46 27 -90 -2z"/>
</g>
</svg>
