<svg xmlns="http://www.w3.org/2000/svg" version="1.2" baseProfile="tiny-ps" viewBox="0 0 200 200" preserveAspectRatio="xMidYMid meet" xml:space="preserve"><title>Brand logo</title>
 <g id="g1">
    <g id="g6" transform="scale(0.1953125)">
      <path style="fill:#fdfdfd" d="M 0,512 V 0 h 512 512 v 512 512 H 512 0 Z" id="path8"/>
      <path style="fill:#731fad" d="m 660.15836,757.09 c -8.00524,-2.76458 -8.80089,-3.91021 -6.22388,-8.96156 1.15839,-2.27064 2.34437,-4.12844 2.6355,-4.12844 0.29114,0 1.85727,0.6867 3.4803,1.526 8.2395,4.26081 20.10046,3.64041 23.94938,-1.25269 1.84176,-2.34142 3.72693,-8.88006 2.82132,-9.78566 -0.2305,-0.2305 -2.61078,0.69048 -5.28951,2.04663 -9.19299,4.65408 -19.45199,2.92474 -26.64762,-4.49195 -15.31709,-15.78764 -2.58611,-41.29905 19.31507,-38.70518 3.64862,0.43213 6.26813,1.50707 8.97658,3.68364 L 687,700.09425 V 697.04712 694 h 6.59085 6.59085 l -0.34085,24.25 c -0.32145,22.86943 -0.47095,24.51406 -2.62602,28.88837 -2.45149,4.97597 -7.7134,9.28384 -13.29527,10.8847 -5.55345,1.59271 -17.84508,1.11003 -23.7612,-0.93307 z m 20.67666,-30.50469 c 3.59632,-1.85973 5.64977,-5.87399 5.5208,-10.79257 -0.13496,-5.14702 -2.9846,-8.92081 -8.1019,-10.72934 -10.87755,-3.84431 -20.04543,6.70395 -14.74135,16.96091 2.82437,5.46172 11.27691,7.68728 17.32245,4.561 z M 192.75,741.19521 188,740.89042 V 710.44521 680 h 23 23 v 5.47523 5.47523 l -16.25,0.27477 -16.25,0.27477 -0.29206,7.75 -0.29207,7.75 H 215.45794 230 v 5.5 5.5 l -8.75,0.2117 c -4.8125,0.11644 -10.55,0.27356 -12.75,0.34916 -8.16577,0.28059 -7.5,-0.72449 -7.5,11.32251 0,12.26424 0.29473,11.86012 -8.25,11.31184 z m 58.70042,-0.60181 c -3.9923,-1.73893 -8.11487,-6.72404 -9.40641,-11.37445 -0.56807,-2.04542 -1.03537,-10.80645 -1.03843,-19.46895 L 241,694 h 6.41025 6.41025 l 0.33975,15.42136 c 0.32218,14.62382 0.46261,15.55204 2.71533,17.94813 3.12235,3.32105 7.06336,4.10069 11.45441,2.26599 C 274.05455,727.24361 275,724.18389 275,708.04966 V 694 h 7 7 v 23.39301 c 0,25.51024 0.21009,24.62425 -5.83179,24.59334 C 278.10557,741.96044 276,740.90211 276,738.38337 c 0,-2.74851 -1.18819,-3.06646 -3.05472,-0.81743 -3.58625,4.32116 -14.87457,5.91108 -21.49486,3.02746 z m 59.76581,-0.52785 c -6.57111,-3.06485 -8.16678,-7.49595 -8.19427,-22.75518 L 303,705.12073 l -3.75,-0.31036 c -3.7318,-0.30886 -3.75,-0.33221 -3.75,-4.81037 0,-4.47816 0.0182,-4.50151 3.75,-4.81037 L 303,694.87927 V 688.93963 683 h 7 7 v 5.9501 5.95009 l 5.75,0.29991 5.75,0.2999 v 4.5 4.5 l -5.75,0.2999 -5.75,0.29991 v 11.82765 c 0,13.54032 0.46602,14.45096 7.11974,13.91237 4.15382,-0.33623 4.21373,-0.29386 5.65179,3.99767 1.90009,5.67034 0.97765,6.51604 -7.53988,6.91263 -5.1226,0.23851 -7.75559,-0.16415 -11.01542,-1.68458 z m 36.28661,-0.3074 c -2.39417,-1.38876 -5.00089,-4.11112 -6.5,-6.78837 -2.35428,-4.20447 -2.52258,-5.49367 -2.83544,-21.71978 L 337.83479,694 H 344.9174 352 v 14.4349 c 0,7.9392 0.43067,15.56764 0.95704,16.9521 0.52637,1.38447 2.39943,3.2631 4.16236,4.17475 4.05799,2.09846 9.77133,0.66392 12.82695,-3.22068 1.78991,-2.2755 2.05506,-4.03823 2.06466,-13.72593 0.006,-6.11333 0.28993,-12.80264 0.63084,-14.86514 L 373.26168,694 H 379.63084 386 v 23.45469 23.45468 l -3.49343,0.65537 c -5.09995,0.95676 -8.36658,-0.15881 -9.10733,-3.11019 l -0.63122,-2.51498 -3.63401,2.77278 c -3.03472,2.31552 -4.78839,2.82156 -10.63401,3.06859 -5.84392,0.24695 -7.66015,-0.0871 -10.99716,-2.02279 z m 52.30802,1.16237 c -1.50496,-0.848 -1.69825,-3.45788 -1.7727,-23.93615 L 397.9546,694 h 6.5227 c 6.29088,0 6.5227,0.0888 6.5227,2.5 0,3.07522 0.063,3.07559 4.55617,0.0264 3.85888,-2.6187 9.60011,-4.16592 11.37894,-3.06654 1.14656,0.70861 1.45268,7.36596 0.4579,9.95831 -0.34952,0.91083 -1.77141,1.58179 -3.35212,1.58179 -3.39161,0 -9.08693,3.72048 -10.76158,7.03002 -0.80998,1.60074 -1.25501,7.13296 -1.26457,15.71998 -0.008,7.2875 -0.35224,13.30573 -0.76474,13.37384 -4.05662,0.66982 -10.07954,0.56277 -11.43914,-0.20332 z M 445.5,739.61671 c -11.34578,-5.36372 -16.55804,-17.02549 -13.0315,-29.15634 4.79968,-16.51033 26.42991,-22.94285 39.50747,-11.74894 5.50849,4.71506 8.2979,10.44022 8.42331,17.28857 l 0.10072,5.5 -17.75,0.27307 c -9.7625,0.1502 -17.75,0.61257 -17.75,1.0275 0,1.63833 3.27296,5.28922 6.01104,6.70514 4.0604,2.09971 11.78008,1.8901 16.12343,-0.43779 l 3.60485,-1.93209 3.26262,3.36617 c 1.85121,1.90997 3.02425,3.98738 2.71159,4.80215 -0.30307,0.78979 -2.92596,2.61945 -5.82863,4.06592 -7.23285,3.60428 -18.06003,3.70948 -25.3849,0.24664 z M 468,712.46974 c 0,-2.37299 -4.99234,-7.31211 -8.59153,-8.49995 -4.38063,-1.44573 -8.32655,-0.0443 -11.92872,4.23664 -4.33122,5.14736 -3.62729,5.6917 7.77025,6.00859 11.45105,0.31837 12.75,0.14057 12.75,-1.74528 z M 492.12236,740 c -0.34143,-0.825 -0.62114,-14.55 -0.62157,-30.5 l -7.9e-4,-29 h 19 c 18.4388,0 19.16245,0.0775 24.5,2.62262 11.45153,5.46055 17.44643,15.06251 17.40502,27.87738 -0.0432,13.3726 -6.80077,23.38533 -18.81686,27.88113 -7.07998,2.64896 -40.45981,3.54965 -41.4658,1.11887 z m 38.13486,-12.97408 c 9.64553,-6.60922 11.06557,-21.70313 2.81779,-29.95091 -4.63593,-4.63593 -10.24291,-6.278 -20.07501,-5.87921 l -7.5,0.3042 -0.27396,17.96638 c -0.15067,9.88151 -0.0328,18.59485 0.26197,19.36298 0.42452,1.10628 2.68539,1.31703 10.87611,1.01383 8.94959,-0.33129 10.81799,-0.71017 13.8931,-2.81727 z m 34.10028,14.25121 c -0.78364,-0.53303 -1.25479,-8.08004 -1.5,-24.02717 l -0.3575,-23.25004 6.25,4e-5 C 574.74999,694 575,694.1 575,696.5 c 0,2.58517 1.36883,3.33027 2.56435,1.39587 1.04927,-1.69775 8.60543,-4.84931 11.68565,-4.87391 2.61924,-0.0209 2.74927,0.2039 2.73469,4.72804 -0.0193,5.99287 -0.59178,6.7997 -5.35872,7.55262 C 578.20569,706.63258 576,711.44111 576,728.46788 576,740.99292 575.99866,741 573.625,741 c -1.30625,0 -3.66875,0.23721 -5.25,0.52713 -1.58125,0.28993 -3.38913,0.17743 -4.0175,-0.25 z m 38.97046,-1.2153 c -5.38167,-2.44345 -7.71318,-6.05087 -7.71033,-11.9298 0.005,-9.51408 5.46242,-13.19944 20.62921,-13.92978 8.57336,-0.41283 9.75316,-0.68866 9.75316,-2.28018 0,-0.9958 -1.08278,-3.06935 -2.40617,-4.60789 -2.14521,-2.49395 -3.03999,-2.78838 -8.25,-2.71476 -3.33606,0.0471 -7.21719,0.79451 -9.04417,1.74158 -1.76019,0.91245 -3.47299,1.659 -3.80623,1.659 -0.33324,0 -1.53612,-2.10293 -2.67306,-4.67318 -1.96471,-4.44155 -1.97974,-4.73712 -0.30314,-5.96308 0.97022,-0.70944 5.1118,-2.0347 9.20352,-2.94502 8.52102,-1.89575 15.49344,-1.37042 21.3298,1.60707 8.22831,4.19777 10.24288,10.58754 9.76554,30.97421 l -0.31609,13.5 -5.82995,0.30229 c -5.10086,0.26448 -5.89447,0.0555 -6.34593,-1.67086 -0.50253,-1.92169 -0.63472,-1.91001 -5.06899,0.44771 -5.61746,2.98684 -12.99732,3.17504 -18.92717,0.48269 z m 18.60052,-8.52484 C 624.99098,729.9533 626,728.18911 626,724.41821 626,722.10613 625.71183,722 619.43426,722 c -3.61116,0 -7.43616,0.46583 -8.5,1.03518 -2.55038,1.36493 -2.67623,7.43328 -0.18426,8.88472 2.54891,1.4846 7.92309,1.30051 11.17848,-0.38291 z m 102.53432,8.87166 c -13.87943,-4.92804 -20.00555,-21.29146 -12.87553,-34.39166 8.37601,-15.38949 31.12543,-17.51677 42.7013,-3.99296 8.02821,9.37916 7.35557,24.06619 -1.50391,32.83799 -6.72903,6.66242 -18.62037,8.99125 -28.32186,5.54663 z m 15.56993,-10.92558 c 8.2575,-4.27012 7.94344,-20.50595 -0.46462,-24.01906 -4.86833,-2.03412 -7.7198,-1.83476 -11.67023,0.81592 -6.85801,4.60162 -7.56436,15.25359 -1.41901,21.39894 3.77809,3.77809 8.51694,4.4089 13.55386,1.8042 z M 770.25,741.33772 C 769.29995,740.95436 769,735.21433 769,717.41667 V 694 h 6.5 c 6.27645,0 6.5,0.0865 6.5,2.51419 v 2.51419 l 3.89145,-2.57524 c 8.16971,-5.40646 21.4059,-3.96423 26.48765,2.88614 3.93057,5.29853 4.6209,9.1338 4.6209,25.67226 v 15.7131 l -5.62002,0.66052 C 803.09237,742.35921 803,742.18878 803,725.92461 c 0,-8.00626 -0.46755,-14.85667 -1.11027,-16.26729 -2.01218,-4.41625 -8.50329,-5.94276 -13.7447,-3.23232 -4.68821,2.42437 -5.59366,5.70398 -5.6206,20.35836 -0.0197,10.69891 -0.31627,13.46845 -1.52443,14.23468 -1.56011,0.98946 -8.57327,1.19801 -10.75,0.31968 z M 492.87654,621.1238 C 482.4508,614.54388 446.47081,592.38348 355.5,536.51237 l -15,-9.21248 -0.25505,-94.52607 -0.25506,-94.52606 17.75506,-11.00806 C 424.74646,285.69902 504.3384,237 505.22948,237 c 0.5852,0 8.98547,4.81321 18.66726,10.69601 18.35049,11.15004 121.75169,74.71512 137.85326,84.74421 l 9.25,5.7615 v 21.65427 21.65427 l -15.30156,9.17872 c -8.41586,5.0483 -15.95336,9.32099 -16.75,9.49487 C 637.72988,400.44983 637.42065,397.0157 637,378.5459 L 636.5,356.59179 614,342.7125 c -58.12501,-35.85484 -93.98084,-57.76792 -95.44118,-58.3283 -1.44028,-0.55269 -1.57307,1.45396 -1.32946,20.09126 l 0.27064,20.70527 27,16.54965 c 14.85,9.1023 34.875,21.35352 44.5,27.22492 l 17.5,10.67527 v 20.33909 20.3391 l -10.3649,6.34562 C 590.43441,430.14447 585.37191,433 584.8851,433 584.3983,433 584,424.06974 584,413.15499 c 0,-17.66722 -0.19205,-20.0081 -1.75,-21.3311 -2.86098,-2.42952 -74.42878,-46.05788 -76.39785,-46.5728 -1.03142,-0.26973 -4.07795,1.02971 -7.08119,3.02033 -4.46715,2.96094 -37.1187,23.16906 -110.03174,68.09893 l -14.76079,9.09577 0.26079,41.43821 0.26078,41.4382 33,20.42183 c 54.23662,33.56397 82.89382,51.07102 84.77533,51.79034 1.66238,0.63554 1.75781,-0.36054 1.5,-15.65627 L 493.5,548.56344 449.25,521.16999 405,493.77653 V 459.88827 426 h 11.5 11.5 l 0.0288,27.75 0.0288,27.75 44.22122,27.14736 44.22121,27.14737 0.5,23.03232 0.5,23.03232 20.58145,-12.67968 c 11.3198,-6.97383 38.2073,-23.47945 59.75,-36.67916 L 637,508.50107 v -44.05941 c 0,-33.67223 0.29469,-44.46105 1.25,-45.76308 0.6875,-0.93702 8.225,-5.89661 16.75,-11.02131 l 15.5,-9.31764 0.25742,64.03705 c 0.20254,50.38611 -0.0106,64.29944 -1,65.26791 -0.69158,0.67697 -13.18242,8.5215 -27.75742,17.4323 -14.575,8.9108 -29.2,17.85876 -32.5,19.88435 -3.3,2.0256 -19.95,12.2346 -37,22.68667 -17.05,10.45207 -38.22897,23.5216 -47.06439,29.04341 -8.83541,5.5218 -16.99097,10.53553 -18.12345,11.14162 -1.76887,0.94667 -3.80341,10e-4 -14.43562,-6.70914 z M 434.75,360.97062 494,324.5864 V 304.2932 C 494,293.13194 493.61232,284 493.1385,284 492.43379,284 430.35346,321.99187 385,350.17852 l -10.5,6.52563 -0.27051,20.71961 c -0.14878,11.39579 0.0762,20.5422 0.5,20.32536 0.42378,-0.21685 27.43301,-16.76717 60.02051,-36.7785 z M 485,476.89254 c -10.725,-6.55223 -20.29536,-12.58583 -21.26746,-13.408 -1.61599,-1.36676 -1.74454,-3.6144 -1.5,-26.22796 l 0.26746,-24.73309 20,-12.26377 c 11,-6.74507 20.93676,-12.51763 22.08168,-12.82791 1.49423,-0.40494 7.56151,2.74799 21.5,11.1727 10.68008,6.45526 20.21339,12.41162 21.18513,13.23637 1.61561,1.37119 1.74398,3.63334 1.5,26.43195 l -0.26681,24.93241 -21,12.89441 c -11.55,7.09192 -21.45,12.85202 -22,12.80022 -0.55,-0.0518 -9.775,-5.4551 -20.5,-12.00733 z M 520.5,438.5 v -15 h -15 -15 l -0.27953,13.95184 c -0.15375,7.67352 -0.0507,14.5481 0.22892,15.27686 0.39717,1.03502 3.74123,1.26442 15.27953,1.04815 L 520.5,453.5 Z" id="path7"/>
      <path style="fill:#4d4f4e" d="m 251.45042,740.5934 c -3.9923,-1.73893 -8.11487,-6.72404 -9.40641,-11.37445 -0.56807,-2.04542 -1.03537,-10.80645 -1.03843,-19.46895 L 241,694 h 6.41025 6.41025 l 0.33975,15.42136 c 0.32218,14.62382 0.46261,15.55204 2.71533,17.94813 3.12235,3.32105 7.06336,4.10069 11.45441,2.26599 C 274.05455,727.24361 275,724.18389 275,708.04966 V 694 h 7 7 v 23.39301 c 0,25.51024 0.21009,24.62425 -5.83179,24.59334 C 278.10557,741.96044 276,740.90211 276,738.38337 c 0,-2.78391 -1.19257,-3.06169 -3.12756,-0.72847 -3.42473,4.12958 -15.03209,5.72178 -21.42202,2.9385 z M 311.5,740.16829 c -6.64245,-3.14731 -7.93757,-6.541 -8.34378,-21.8637 l -0.34982,-13.1954 -3.6532,-0.3046 C 295.53527,704.50294 295.5,704.45655 295.5,700 c 0,-4.47816 0.0182,-4.50151 3.75,-4.81037 L 303,694.87927 V 688.93963 683 h 7 7 v 5.9501 5.95009 l 5.75,0.29991 5.75,0.2999 v 4.5 4.5 l -5.75,0.2999 -5.75,0.29991 v 11.82765 c 0,13.54032 0.46602,14.45096 7.11974,13.91237 4.15382,-0.33623 4.21373,-0.29386 5.65179,3.99767 1.90009,5.67034 0.97765,6.51604 -7.53988,6.91263 -5.03177,0.23428 -7.74173,-0.16517 -10.73165,-1.58184 z M 347.96189,739.75 c -3.12763,-1.57717 -5.20928,-3.59565 -6.96125,-6.75 -2.34579,-4.22351 -2.52084,-5.55988 -2.84895,-21.75 L 337.8021,694 h 6.48232 c 7.88055,0 7.68275,-0.4285 7.70193,16.6849 0.008,6.7017 0.44432,13.31764 0.97069,14.7021 0.52637,1.38447 2.39943,3.2631 4.16236,4.17475 2.65307,1.37195 3.85729,1.4622 6.98932,0.52382 C 370.65961,728.12288 372,725.3065 372,713.50471 c 0,-5.62406 0.28617,-12.31337 0.63592,-14.86514 L 373.27185,694 H 379.63592 386 v 23.4121 23.4121 l -3.95783,0.66867 c -5.16556,0.87272 -7.8983,-0.0715 -8.6286,-2.98121 l -0.59108,-2.35504 -4.60702,2.92169 c -5.94929,3.77293 -13.60045,4.02667 -20.25358,0.67169 z m 51.54854,0.61757 c -1.08953,-1.08953 -1.4017,-6.15366 -1.47176,-23.8752 L 397.94976,694 h 6.52512 c 6.29346,0 6.52512,0.0888 6.52512,2.5 0,3.07522 0.063,3.07559 4.55617,0.0264 3.85888,-2.6187 9.60011,-4.16592 11.37894,-3.06654 1.20028,0.74181 1.42819,8.45278 0.29958,10.13547 -0.40408,0.60245 -2.51238,1.37629 -4.68511,1.71965 -2.49354,0.39405 -5.07509,1.7479 -7,3.67103 l -3.04958,3.04675 -0.32377,14.4836 c -0.17808,7.96598 -0.62808,14.52245 -1,14.56992 -5.76486,0.73592 -10.50307,0.44399 -11.6658,-0.71875 z m 49.4831,0.75597 c -13.53589,-4.43 -20.43153,-17.22528 -16.52503,-30.66317 4.79968,-16.51033 26.42991,-22.94285 39.50747,-11.74894 5.50849,4.71506 8.2979,10.44022 8.42331,17.28857 l 0.10072,5.5 -17.75,0.27307 c -9.7625,0.1502 -17.75,0.61257 -17.75,1.0275 0,1.63833 3.27296,5.28922 6.01104,6.70514 4.0604,2.09971 11.78008,1.8901 16.12343,-0.43779 l 3.60485,-1.93209 3.13034,3.22969 c 1.72169,1.77633 3.13034,3.7518 3.13034,4.38993 0,0.63813 -2.09605,2.38861 -4.65789,3.88995 -3.85306,2.25804 -6.05613,2.77884 -12.75,3.01408 -4.45066,0.1564 -9.22002,-0.0848 -10.59858,-0.53594 z M 468,712.46974 c 0,-2.37299 -4.99234,-7.31211 -8.59153,-8.49995 -4.38063,-1.44573 -8.32655,-0.0443 -11.92872,4.23664 -4.33122,5.14736 -3.62729,5.6917 7.77025,6.00859 11.45105,0.31837 12.75,0.14057 12.75,-1.74528 z M 188,710.5 V 680 h 23 23 v 5.47523 5.47523 l -16.25,0.27477 -16.25,0.27477 -0.29206,7.75 -0.29207,7.75 H 215.45794 230 v 5.47254 5.47255 L 215.75,718.22254 201.5,718.5 201.21725,729.75 200.9345,741 H 194.46725 188 Z" id="path6"/>
    </g>
  </g>
</svg>
